<?xml version="1.0" encoding="UTF-8" standalone="no"?>
<svg
   xmlns:dc="http://purl.org/dc/elements/1.1/"
   xmlns:cc="http://creativecommons.org/ns#"
   xmlns:rdf="http://www.w3.org/1999/02/22-rdf-syntax-ns#"
   xmlns:svg="http://www.w3.org/2000/svg"
   xmlns="http://www.w3.org/2000/svg"
   xmlns:sodipodi="http://sodipodi.sourceforge.net/DTD/sodipodi-0.dtd"
   xmlns:inkscape="http://www.inkscape.org/namespaces/inkscape"
   width="210mm"
   height="297mm"
   viewBox="0 0 210 297"
   version="1.1"
   id="svg98"
   inkscape:version="1.0.2 (e86c870879, 2021-01-15)"
   sodipodi:docname="n0tme.svg">
  <defs
     id="defs92" />
  <sodipodi:namedview
     id="base"
     pagecolor="#ffffff"
     bordercolor="#666666"
     borderopacity="1.0"
     inkscape:pageopacity="0.0"
     inkscape:pageshadow="2"
     inkscape:zoom="0.21338158"
     inkscape:cx="-176.11869"
     inkscape:cy="1827.2034"
     inkscape:document-units="mm"
     inkscape:current-layer="layer1"
     showgrid="false"
     inkscape:snap-global="true"
     inkscape:window-width="952"
     inkscape:window-height="999"
     inkscape:window-x="0"
     inkscape:window-y="46"
     inkscape:window-maximized="0"
     inkscape:document-rotation="0" />
  <metadata
     id="metadata95">
    <rdf:RDF>
      <cc:Work
         rdf:about="">
        <dc:format>image/svg+xml</dc:format>
        <dc:type
           rdf:resource="http://purl.org/dc/dcmitype/StillImage" />
        <dc:title />
      </cc:Work>
    </rdf:RDF>
  </metadata>
  <g
     inkscape:label="Layer 1"
     inkscape:groupmode="layer"
     id="layer1">
    <path
       style="fill:#ffffff;fill-opacity:1;stroke-width:0.332681"
       d="m 159.00114,32.370789 -24.00789,24.323418 c -26.8206,27.173043 -30.18057,30.505921 -30.75274,30.505921 -0.58965,0 -3.73936,-3.096058 -30.655428,-30.135663 l -24.529524,-24.642453 -7.976031,8.105433 -7.976035,8.105752 35.475193,36.051982 c 19.511439,19.828611 35.550015,36.051971 35.641415,36.051971 0.0914,0 16.09401,-16.18651 35.56101,-35.969949 L 175.17559,48.797252 167.0882,40.58418 Z m 16.48583,48.33008 c -0.035,-0.0015 -0.0667,0.0056 -0.0951,0.02305 -1.53502,0.936466 -16.74142,10.723472 -17.46178,11.238664 -0.49915,0.356985 -0.90736,0.926131 -0.90736,1.264769 0,0.338638 0.65359,1.87554 1.45229,3.414982 5.2086,10.039346 7.47235,26.529286 5.29927,38.599346 l -0.58863,3.27006 -46.06609,-0.0205 c -52.938235,-0.0234 -67.532994,-0.25439 -68.786013,-1.08872 -0.702992,-0.4681 -0.856294,-0.90986 -1.09431,-3.15528 -0.152211,-1.43598 -0.276617,-6.53464 -0.276617,-11.33042 0,-7.08589 0.110379,-9.25347 0.589595,-11.57002 0.928319,-4.4874 2.431714,-8.8429 4.77573,-13.83628 1.191147,-2.53744 2.104825,-4.664551 2.030381,-4.726768 -0.585551,-0.489411 -14.546087,-9.13815 -16.571019,-10.26601 -3.013057,-1.678234 -2.656611,-1.869877 -4.967486,2.670254 -1.959474,3.849738 -4.533611,10.403322 -5.928104,15.091654 -3.044835,10.23683 -3.802562,18.26404 -3.094393,32.78224 l 0.265771,5.44977 H 19.919717 15.776 v 12.91162 12.91163 h 8.904761 8.904461 l 2.932628,4.45312 c 3.837043,5.82602 6.37794,9.01563 10.64386,13.36197 11.474177,11.6905 26.010609,19.89086 40.557854,22.88 3.56846,0.73325 7.04987,1.23887 11.55057,1.67717 2.782516,0.27098 11.741586,0.18941 15.040586,-0.13681 23.95271,-2.36865 47.81672,-17.41861 60.45551,-38.12696 l 2.50735,-4.10849 h 10.00547 10.00546 v -12.9116 -12.91162 h -5.08265 -5.08265 l -0.15474,-14.16926 c -0.17804,-16.28805 -0.19298,-16.40261 -3.35951,-25.932834 -2.83994,-8.547299 -7.03279,-17.651902 -8.11801,-17.708738 z M 100.26845,164.5097 c 20.74408,-0.007 43.79961,0.11875 44.70857,0.35178 1.05836,0.27134 1.33987,0.50673 1.4191,1.18825 0.27366,2.35409 -10.39555,10.01767 -18.57971,13.34544 -4.31227,1.75344 -9.90008,3.19387 -14.96369,3.85752 -4.28019,0.56102 -11.60432,0.64218 -15.232636,0.16892 -5.8404,-0.76179 -12.92105,-2.9867 -18.217932,-5.7247 -6.614988,-3.41933 -12.94464,-8.04818 -14.707485,-10.75525 -1.077594,-1.65476 -0.891712,-1.79437 2.873929,-2.16188 1.829727,-0.17858 16.565558,-0.26454 32.699854,-0.27008 z"
       id="path135"
       inkscape:connector-curvature="0"
       inkscape:export-xdpi="96"
       inkscape:export-ydpi="96" />
  </g>
</svg>
